<svg width="321" height="304" xmlns="http://www.w3.org/2000/svg" xmlns:xlink="http://www.w3.org/1999/xlink" overflow="hidden"><defs><filter id="fx0" x="-10%" y="-10%" width="120%" height="120%" filterUnits="userSpaceOnUse" primitiveUnits="userSpaceOnUse"><feComponentTransfer color-interpolation-filters="sRGB"><feFuncR type="discrete" tableValues="0 0"/><feFuncG type="discrete" tableValues="0 0"/><feFuncB type="discrete" tableValues="0 0"/><feFuncA type="linear" slope="0.4" intercept="0"/></feComponentTransfer><feGaussianBlur stdDeviation="1.7787 1.77583"/></filter><filter id="fx1" x="-10%" y="-10%" width="120%" height="120%" filterUnits="userSpaceOnUse" primitiveUnits="userSpaceOnUse"><feComponentTransfer color-interpolation-filters="sRGB"><feFuncR type="discrete" tableValues="0 0"/><feFuncG type="discrete" tableValues="0 0"/><feFuncB type="discrete" tableValues="0 0"/><feFuncA type="linear" slope="0.4" intercept="0"/></feComponentTransfer><feGaussianBlur stdDeviation="1.7787 1.77583"/></filter><filter id="fx2" x="-10%" y="-10%" width="120%" height="120%" filterUnits="userSpaceOnUse" primitiveUnits="userSpaceOnUse"><feComponentTransfer color-interpolation-filters="sRGB"><feFuncR type="discrete" tableValues="0 0"/><feFuncG type="discrete" tableValues="0 0"/><feFuncB type="discrete" tableValues="0 0"/><feFuncA type="linear" slope="0.4" intercept="0"/></feComponentTransfer><feGaussianBlur stdDeviation="1.7787 1.77583"/></filter><filter id="fx3" x="-10%" y="-10%" width="120%" height="120%" filterUnits="userSpaceOnUse" primitiveUnits="userSpaceOnUse"><feComponentTransfer color-interpolation-filters="sRGB"><feFuncR type="discrete" tableValues="0 0"/><feFuncG type="discrete" tableValues="0 0"/><feFuncB type="discrete" tableValues="0 0"/><feFuncA type="linear" slope="0.4" intercept="0"/></feComponentTransfer><feGaussianBlur stdDeviation="1.7787 1.77583"/></filter><clipPath id="clip4"><rect x="0" y="0" width="321" height="304"/></clipPath><clipPath id="clip5"><path d="M14.4887 157.745C10.9051 157.745 7.99996 160.645 7.99996 164.223L7.99996 289.044C7.99996 292.622 10.9051 295.522 14.4887 295.522L139.511 295.522C143.095 295.522 146 292.622 146 289.044L146 164.223C146 160.645 143.095 157.745 139.511 157.745ZM4.78327e-06 4.52995e-06 321 4.52995e-06 321 304 4.78327e-06 304Z" fill-rule="evenodd" clip-rule="evenodd"/></clipPath><clipPath id="clip6"><path d="M172.489 4.99191C168.905 4.99191 166 7.89233 166 11.4702L166 136.291C166 139.869 168.905 142.769 172.489 142.769L297.511 142.769C301.095 142.769 304 139.869 304 136.291L304 11.4702C304 7.89233 301.095 4.99191 297.511 4.99191ZM4.78327e-06 4.52995e-06 321 4.52995e-06 321 304 4.78327e-06 304Z" fill-rule="evenodd" clip-rule="evenodd"/></clipPath><clipPath id="clip7"><path d="M14.4887 4.99191C10.9051 4.99191 7.99996 7.89233 7.99996 11.4702L7.99996 136.291C7.99996 139.869 10.9051 142.769 14.4887 142.769L139.511 142.769C143.095 142.769 146 139.869 146 136.291L146 11.4702C146 7.89233 143.095 4.99191 139.511 4.99191ZM4.78327e-06 4.52995e-06 321 4.52995e-06 321 304 4.78327e-06 304Z" fill-rule="evenodd" clip-rule="evenodd"/></clipPath><clipPath id="clip8"><rect x="34" y="34" width="256" height="253"/></clipPath><clipPath id="clip9"><path d="M113.959 193.07 265.909 107.461 351.655 259.166 199.705 344.774Z" fill-rule="evenodd" clip-rule="evenodd"/></clipPath><clipPath id="clip10"><path d="M113.959 193.07 265.909 107.461 351.655 259.166 199.705 344.774Z" fill-rule="evenodd" clip-rule="evenodd"/></clipPath><clipPath id="clip11"><path d="M113.959 193.07 265.909 107.461 351.655 259.166 199.705 344.774Z" fill-rule="evenodd" clip-rule="evenodd"/></clipPath></defs><g clip-path="url(#clip4)"><rect x="0" y="0" width="321" height="303.509" fill="#FFFFFF" fill-opacity="0"/><g clip-path="url(#clip5)"><g filter="url(#fx0)" transform="matrix(1 0 0 1 0 150)"><g><path d="M10.8299 17.0487C10.8299 13.4708 13.735 10.5704 17.3186 10.5704L142.341 10.5704C145.925 10.5704 148.83 13.4708 148.83 17.0487L148.83 141.869C148.83 145.447 145.925 148.348 142.341 148.348L17.3186 148.348C13.735 148.348 10.8299 145.447 10.8299 141.869Z" stroke="#F0B46E" stroke-width="8" stroke-miterlimit="8" fill="#FFFFFF" fill-rule="evenodd"/></g></g></g><path d="M7.99995 164.223C7.99995 160.645 10.9051 157.745 14.4887 157.745L139.511 157.745C143.095 157.745 146 160.645 146 164.223L146 289.044C146 292.622 143.095 295.522 139.511 295.522L14.4887 295.522C10.9051 295.522 7.99995 292.622 7.99995 289.044Z" stroke="#F0B46E" stroke-width="8.00416" stroke-miterlimit="8" fill="#FFFFFF" fill-rule="evenodd"/><g clip-path="url(#clip6)"><g filter="url(#fx1)" transform="translate(158 -3)"><g><path d="M10.8299 17.2955C10.8299 13.7177 13.735 10.8172 17.3186 10.8172L142.341 10.8172C145.925 10.8172 148.83 13.7177 148.83 17.2955L148.83 142.116C148.83 145.694 145.925 148.595 142.341 148.595L17.3186 148.595C13.735 148.595 10.8299 145.694 10.8299 142.116Z" stroke="#74AF54" stroke-width="8" stroke-miterlimit="8" fill="#FFFFFF" fill-rule="evenodd"/></g></g></g><path d="M166 11.4702C166 7.89233 168.905 4.9919 172.489 4.9919L297.511 4.9919C301.095 4.9919 304 7.89233 304 11.4702L304 136.291C304 139.869 301.095 142.769 297.511 142.769L172.489 142.769C168.905 142.769 166 139.869 166 136.291Z" stroke="#74AF54" stroke-width="8.00416" stroke-miterlimit="8" fill="#FFFFFF" fill-rule="evenodd"/><g clip-path="url(#clip7)"><g filter="url(#fx2)" transform="matrix(1 0 0 1 0 -3)"><g><path d="M10.8299 17.2955C10.8299 13.7177 13.735 10.8172 17.3186 10.8172L142.341 10.8172C145.925 10.8172 148.83 13.7177 148.83 17.2955L148.83 142.116C148.83 145.694 145.925 148.595 142.341 148.595L17.3186 148.595C13.735 148.595 10.8299 145.694 10.8299 142.116Z" stroke="#79A7DB" stroke-width="8" stroke-miterlimit="8" fill="#FFFFFF" fill-rule="evenodd"/></g></g></g><path d="M7.99995 11.4702C7.99995 7.89233 10.9051 4.9919 14.4887 4.9919L139.511 4.9919C143.095 4.9919 146 7.89233 146 11.4702L146 136.291C146 139.869 143.095 142.769 139.511 142.769L14.4887 142.769C10.9051 142.769 7.99995 139.869 7.99995 136.291Z" stroke="#79A7DB" stroke-width="8.00416" stroke-miterlimit="8" fill="#FFFFFF" fill-rule="evenodd"/><g clip-path="url(#clip8)" filter="url(#fx3)" transform="translate(-6 -6)"><g><path d="M4.39453-81.7383 47.2559-81.7383C56.9891-81.7383 64.7288-80.1953 70.475-77.1094 76.2212-74.0234 80.8044-69.4531 84.2248-63.3984 87.6453-57.3437 89.3555-50.0781 89.3555-41.6016 89.3555-35.7031 88.4857-30.4297 86.7462-25.7812 85.0067-21.1328 82.417-16.9434 78.977-13.2129 75.5371-9.48242 71.8433-6.67969 67.8955-4.80469 64.9243-3.39844 60.7123-2.24609 55.2594-1.34766 49.8065-0.449219 45.4382 0 42.1545 0L4.39453 0 4.39453-11.3086 7.22351-11.3086C9.62097-11.3086 11.1929-11.5039 11.9394-11.8945 12.6859-12.2852 13.295-12.9492 13.7668-13.8867 14.0811-14.6289 14.2383-16.25 14.2383-18.75L14.2383-63.3984C14.2383-65.8984 14.0712-67.5098 13.737-68.2324 13.4029-68.9551 12.8528-69.5019 12.0868-69.873 11.3208-70.2441 9.69971-70.4297 7.22351-70.4297L4.39453-70.4297ZM34.3359-68.6719 34.3359-17.764C34.3359-16.0416 34.4336-14.9847 34.6289-14.5935 34.9414-14.0057 35.4004-13.6043 36.0059-13.3891 36.6113-13.174 38.0664-13.0664 40.3711-13.0664 46.7773-13.0664 51.7871-14.0549 55.4004-16.0318 59.0137-18.0087 61.9336-21.1795 64.1601-25.5441 66.3867-29.9087 67.5-35.1053 67.5-41.1337 67.5-47.0834 66.4551-52.2603 64.3652-56.6643 62.2754-61.0683 59.6875-64.1705 56.6016-65.9711 53.5156-67.7716 49.1016-68.6719 43.3594-68.6719Z" fill="#153574" transform="matrix(1 0 0 0.998386 41.0759 278)"/><path d="M2.14795-36.1011 19.7715-36.1011 19.7715-31.1064 18.228-31.1064C17.3705-31.1064 16.8303-31.0633 16.6074-30.977 16.1957-30.8045 15.8956-30.5414 15.7069-30.1877 15.5182-29.8341 15.4238-29.269 15.4238-28.4927L15.4238-7.86719C15.4238-7.03906 15.4626-6.53011 15.5403-6.34033 15.6179-6.15055 15.7775-5.99959 16.019-5.88745 16.2606-5.77531 16.7264-5.71924 17.4165-5.71924 19.7284-5.71924 21.5873-6.02116 22.9934-6.625 24.3995-7.22884 25.6676-8.1993 26.7976-9.53638 27.9277-10.8735 28.8981-12.6893 29.709-14.9839L34.4707-13.3535 29.709 0 2.14795 0 2.14795-4.99463 3.87173-4.99463C4.57477-4.99463 5.10637-5.08952 5.46651-5.2793 5.82666-5.46907 6.08821-5.72355 6.25117-6.04272 6.41413-6.3619 6.4956-6.91829 6.4956-7.71191L6.4956-28.1562C6.4956-29.0189 6.41413-29.64 6.25117-30.0195 6.08821-30.3991 5.85665-30.6751 5.55648-30.8477 5.25632-31.0202 4.75471-31.1064 4.05167-31.1064L2.14795-31.1064Z" fill="#FFFFFF" transform="matrix(0.868519 -0.494057 0.496457 0.867117 235.859 259)"/><path d="M0.117187-81.7383 38.9648-81.7383 38.9648-70.4297 37.7344-70.4297C35.2734-70.4297 33.7012-70.332 33.0176-70.1367 32.334-69.9414 31.7578-69.5312 31.2891-68.9062 30.8203-68.2812 30.5859-67.6367 30.5859-66.9726 30.5859-66.1523 31.0352-64.4726 31.9336-61.9336L46.4117-21.2265 61.832-62.9819C62.5742-65.054 62.9452-66.481 62.9452-67.2629 62.9452-68.3578 62.5835-69.1594 61.8599-69.6675 61.1363-70.1756 59.5807-70.4297 57.193-70.4297L54.668-70.4297 54.668-81.7383 86.3086-81.7383 86.3086-70.4297C83.6914-70.4297 81.9336-70.1367 81.0351-69.5508 79.668-68.6523 78.3008-66.4648 76.9336-62.9883L52.4414 0 34.043 0 9.14062-63.3984C8.125-65.9375 7.34375-67.5586 6.79687-68.2617 6.25-68.9648 5.47852-69.5117 4.48242-69.9023 3.48633-70.293 2.03125-70.4687 0.117187-70.4297Z" fill="#153574" transform="matrix(1 0 0 0.998386 42.7674 126)"/><path d="M66.1523-81.7383 73.1836-54.3164 62.2266-51.2109C58.5992-57.7545 54.4846-62.5447 49.8825-65.5815 45.2805-68.6183 40.3857-70.1367 35.1984-70.1367 31.8439-70.1367 29.2014-69.4524 27.2708-68.0836 25.3403-66.7149 24.375-65.1901 24.375-63.5092 24.375-61.5933 25.2539-59.8141 27.0117-58.1717 28.7305-56.5292 31.8945-55.0629 36.5039-53.7726L52.207-49.1977C60.918-46.6959 67.1289-43.3731 70.8398-39.2294 74.5117-35.0467 76.3476-30.1797 76.3476-24.6286 76.3476-17.5528 73.5351-11.572 67.9101-6.6861 61.6211-1.2912 53.8086 1.40625 44.4727 1.40625 40.1367 1.40625 36.1523 0.849609 32.5195-0.263672 28.8867-1.37695 25.0977-3.24219 21.1523-5.85937L18.5742 0 9.84375 0 4.04297-31.6992 15-34.3359C17.5781-27.8906 21.5918-22.5098 27.041-18.1934 32.4902-13.877 38.4766-11.7187 45-11.7187 47.9297-11.7187 50.3613-12.0897 52.2949-12.8316 54.2285-13.5735 55.6836-14.6083 56.6602-15.9361 57.6367-17.2639 58.125-18.631 58.125-20.0372 58.125-22.3804 56.9922-24.3915 54.7266-26.0706 52.4219-27.7502 48.3984-29.4101 42.6562-31.0501L28.9947-35.0299C26.925-35.6158 24.1234-36.7195 20.5898-38.3409 17.0561-39.9623 14.3423-41.6521 12.4484-43.4102 10.5545-45.1683 8.98285-47.4246 7.73346-50.1791 6.48407-52.9337 5.85937-55.8347 5.85937-58.8821 5.85937-63.2187 7.06055-67.2136 9.46289-70.8668 11.8652-74.5201 15.4785-77.4797 20.3027-79.7456 25.127-82.0116 30.4687-83.1445 36.3281-83.1445 43.3984-83.1445 49.7852-81.3086 55.4883-77.6367L57.7734-81.7383Z" fill="#153574" transform="matrix(1 0 0 0.998386 204.446 126)"/></g></g><text fill="#153574" font-family="Bookman Old Style,Bookman Old Style_MSFontService,sans-serif" font-weight="600" font-size="120" transform="matrix(1 0 0 0.998386 32.246 269)">D</text><text fill="#FFFFFF" font-family="Bookman Old Style,Bookman Old Style_MSFontService,sans-serif" font-weight="600" font-size="53" transform="matrix(0.868519 -0.494057 0.496457 0.867117 227.029 250)">L</text><text fill="#153574" font-family="Bookman Old Style,Bookman Old Style_MSFontService,sans-serif" font-weight="600" font-size="120" transform="matrix(1 0 0 0.998386 33.9375 117)">V</text><text fill="#153574" font-family="Bookman Old Style,Bookman Old Style_MSFontService,sans-serif" font-weight="600" font-size="120" transform="matrix(1 0 0 0.998386 195.617 117)">S</text><g clip-path="url(#clip9)"><g clip-path="url(#clip10)"><g clip-path="url(#clip11)"><path d="M56.2717 117.989 117.989 117.989 117.989 56.2717 56.2717 56.2717ZM59.9021 59.9021 114.359 59.9021 114.359 114.359 59.9021 114.359Z" stroke="#D86B68" stroke-width="3.14929" fill="#FFFFFF" transform="matrix(0.871971 -0.491264 0.492059 0.870563 113.959 193.07)"/><path d="M152.478 52.6413 152.478 49.0108 136.141 49.0108 136.141 47.1956C136.135 42.1854 132.075 38.1255 127.065 38.1195L125.25 38.1195 125.25 21.7826 121.619 21.7826 121.619 38.1195 110.728 38.1195 110.728 21.7826 107.098 21.7826 107.098 38.1195 96.2064 38.1195 96.2064 21.7826 92.576 21.7826 92.576 38.1195 81.6847 38.1195 81.6847 21.7826 78.0543 21.7826 78.0543 38.1195 67.163 38.1195 67.163 21.7826 63.5326 21.7826 63.5326 38.1195 52.6413 38.1195 52.6413 21.7826 49.0108 21.7826 49.0108 38.1195 47.1956 38.1195C42.1854 38.1255 38.1255 42.1854 38.1195 47.1956L38.1195 49.0108 21.7826 49.0108 21.7826 52.6413 38.1195 52.6413 38.1195 63.5326 21.7826 63.5326 21.7826 67.163 38.1195 67.163 38.1195 78.0543 21.7826 78.0543 21.7826 81.6847 38.1195 81.6847 38.1195 92.576 21.7826 92.576 21.7826 96.2064 38.1195 96.2064 38.1195 107.098 21.7826 107.098 21.7826 110.728 38.1195 110.728 38.1195 121.619 21.7826 121.619 21.7826 125.25 38.1195 125.25 38.1195 127.065C38.1255 132.075 42.1854 136.135 47.1956 136.141L49.0108 136.141 49.0108 152.478 52.6413 152.478 52.6413 136.141 63.5326 136.141 63.5326 152.478 67.163 152.478 67.163 136.141 78.0543 136.141 78.0543 152.478 81.6847 152.478 81.6847 136.141 92.576 136.141 92.576 152.478 96.2064 152.478 96.2064 136.141 107.098 136.141 107.098 152.478 110.728 152.478 110.728 136.141 121.619 136.141 121.619 152.478 125.25 152.478 125.25 136.141 127.065 136.141C132.075 136.135 136.135 132.075 136.141 127.065L136.141 125.25 152.478 125.25 152.478 121.619 136.141 121.619 136.141 110.728 152.478 110.728 152.478 107.098 136.141 107.098 136.141 96.2064 152.478 96.2064 152.478 92.576 136.141 92.576 136.141 81.6847 152.478 81.6847 152.478 78.0543 136.141 78.0543 136.141 67.163 152.478 67.163 152.478 63.5326 136.141 63.5326 136.141 52.6413ZM132.511 127.065C132.511 130.073 130.073 132.511 127.065 132.511L47.1956 132.511C44.188 132.511 41.75 130.073 41.75 127.065L41.75 47.1956C41.75 44.188 44.188 41.75 47.1956 41.75L127.065 41.75C130.073 41.75 132.511 44.188 132.511 47.1956Z" stroke="#D86B68" stroke-width="3.14929" fill="#FFFFFF" transform="matrix(0.871971 -0.491264 0.492059 0.870563 113.959 193.07)"/></g></g></g></g></svg>