<svg width="321" height="304" xmlns="http://www.w3.org/2000/svg" xmlns:xlink="http://www.w3.org/1999/xlink" overflow="hidden"><defs><filter id="fx0" x="-10%" y="-10%" width="120%" height="120%" filterUnits="userSpaceOnUse" primitiveUnits="userSpaceOnUse"><feComponentTransfer color-interpolation-filters="sRGB"><feFuncR type="discrete" tableValues="0 0"/><feFuncG type="discrete" tableValues="0 0"/><feFuncB type="discrete" tableValues="0 0"/><feFuncA type="linear" slope="0.4" intercept="0"/></feComponentTransfer><feGaussianBlur stdDeviation="1.7787 1.77583"/></filter><filter id="fx1" x="-10%" y="-10%" width="120%" height="120%" filterUnits="userSpaceOnUse" primitiveUnits="userSpaceOnUse"><feComponentTransfer color-interpolation-filters="sRGB"><feFuncR type="discrete" tableValues="0 0"/><feFuncG type="discrete" tableValues="0 0"/><feFuncB type="discrete" tableValues="0 0"/><feFuncA type="linear" slope="0.4" intercept="0"/></feComponentTransfer><feGaussianBlur stdDeviation="1.7787 1.77583"/></filter><filter id="fx2" x="-10%" y="-10%" width="120%" height="120%" filterUnits="userSpaceOnUse" primitiveUnits="userSpaceOnUse"><feComponentTransfer color-interpolation-filters="sRGB"><feFuncR type="discrete" tableValues="0 0"/><feFuncG type="discrete" tableValues="0 0"/><feFuncB type="discrete" tableValues="0 0"/><feFuncA type="linear" slope="0.4" intercept="0"/></feComponentTransfer><feGaussianBlur stdDeviation="1.7787 1.77583"/></filter><filter id="fx3" x="-10%" y="-10%" width="120%" height="120%" filterUnits="userSpaceOnUse" primitiveUnits="userSpaceOnUse"><feComponentTransfer color-interpolation-filters="sRGB"><feFuncR type="discrete" tableValues="0 0"/><feFuncG type="discrete" tableValues="0 0"/><feFuncB type="discrete" tableValues="0 0"/><feFuncA type="linear" slope="0.4" intercept="0"/></feComponentTransfer><feGaussianBlur stdDeviation="1.7787 1.77583"/></filter><filter id="fx4" x="-10%" y="-10%" width="120%" height="120%" filterUnits="userSpaceOnUse" primitiveUnits="userSpaceOnUse"><feComponentTransfer color-interpolation-filters="sRGB"><feFuncR type="discrete" tableValues="0 0"/><feFuncG type="discrete" tableValues="0 0"/><feFuncB type="discrete" tableValues="0 0"/><feFuncA type="linear" slope="0.4" intercept="0"/></feComponentTransfer><feGaussianBlur stdDeviation="1.7787 1.77583"/></filter><clipPath id="clip5"><rect x="0" y="0" width="321" height="304"/></clipPath><clipPath id="clip6"><path d="M19.4888 159.742C15.9051 159.742 13 162.642 13 166.22L13 291.041C13 294.619 15.9051 297.519 19.4888 297.519L144.511 297.519C148.095 297.519 151 294.619 151 291.041L151 166.22C151 162.642 148.095 159.742 144.511 159.742ZM4.78327e-06 4.52995e-06 321 4.52995e-06 321 304 4.78327e-06 304Z" fill-rule="evenodd" clip-rule="evenodd"/></clipPath><clipPath id="clip7"><path d="M177.489 6.98867C173.905 6.98867 171 9.88909 171 13.4669L171 138.288C171 141.866 173.905 144.766 177.489 144.766L302.511 144.766C306.095 144.766 309 141.866 309 138.288L309 13.4669C309 9.88909 306.095 6.98867 302.511 6.98867ZM4.78327e-06 4.52995e-06 321 4.52995e-06 321 304 4.78327e-06 304Z" fill-rule="evenodd" clip-rule="evenodd"/></clipPath><clipPath id="clip8"><path d="M19.4888 6.98867C15.9051 6.98867 13 9.88909 13 13.4669L13 138.288C13 141.866 15.9051 144.766 19.4888 144.766L144.511 144.766C148.095 144.766 151 141.866 151 138.288L151 13.4669C151 9.88909 148.095 6.98867 144.511 6.98867ZM4.78327e-06 4.52995e-06 321 4.52995e-06 321 304 4.78327e-06 304Z" fill-rule="evenodd" clip-rule="evenodd"/></clipPath><clipPath id="clip9"><rect x="40" y="36" width="254" height="254"/></clipPath><clipPath id="clip10"><rect x="31" y="31" width="162" height="162"/></clipPath><clipPath id="clip11"><rect x="0" y="0" width="196" height="191"/></clipPath><clipPath id="clip12"><path d="M6.63758 60.2074 164.331 7.31003 217.314 164.749 59.6204 217.646Z" fill-rule="evenodd" clip-rule="evenodd"/></clipPath><clipPath id="clip13"><path d="M6.63758 60.2074 164.331 7.31003 217.314 164.749 59.6204 217.646Z" fill-rule="evenodd" clip-rule="evenodd"/></clipPath><clipPath id="clip14"><path d="M6.63758 60.2074 164.331 7.31003 217.314 164.749 59.6204 217.646Z" fill-rule="evenodd" clip-rule="evenodd"/></clipPath><clipPath id="clip15"><path d="M134.808 176.382 292.501 123.485 345.484 280.924 187.791 333.821Z" fill-rule="evenodd" clip-rule="evenodd"/></clipPath><clipPath id="clip16"><path d="M134.808 176.382 292.501 123.485 345.484 280.924 187.791 333.821Z" fill-rule="evenodd" clip-rule="evenodd"/></clipPath><clipPath id="clip17"><path d="M134.808 176.382 292.501 123.485 345.484 280.924 187.791 333.821Z" fill-rule="evenodd" clip-rule="evenodd"/></clipPath></defs><g clip-path="url(#clip5)"><rect x="0" y="0" width="321" height="303.509" fill="#FFFFFF" fill-opacity="0"/><g clip-path="url(#clip6)"><g filter="url(#fx0)" transform="translate(6 153)"><g><path d="M9.82993 16.0454C9.82993 12.4675 12.735 9.56712 16.3187 9.56712L141.341 9.56712C144.925 9.56712 147.83 12.4675 147.83 16.0454L147.83 140.866C147.83 144.444 144.925 147.344 141.341 147.344L16.3187 147.344C12.735 147.344 9.82993 144.444 9.82993 140.866Z" stroke="#F0B46E" stroke-width="6" stroke-miterlimit="8" fill="#FFFFFF" fill-rule="evenodd"/></g></g></g><path d="M13 166.22C13 162.642 15.9051 159.742 19.4888 159.742L144.511 159.742C148.095 159.742 151 162.642 151 166.22L151 291.041C151 294.619 148.095 297.519 144.511 297.519L19.4888 297.519C15.9051 297.519 13 294.619 13 291.041Z" stroke="#F0B46E" stroke-width="6.00312" stroke-miterlimit="8" fill="#FFFFFF" fill-rule="evenodd"/><g clip-path="url(#clip7)"><g filter="url(#fx1)" transform="translate(164 0)"><g><path d="M9.82986 16.2923C9.82986 12.7144 12.735 9.81399 16.3186 9.81399L141.341 9.81399C144.925 9.81399 147.83 12.7144 147.83 16.2923L147.83 141.113C147.83 144.691 144.925 147.591 141.341 147.591L16.3186 147.591C12.735 147.591 9.82986 144.691 9.82986 141.113Z" stroke="#74AF54" stroke-width="6" stroke-miterlimit="8" fill="#FFFFFF" fill-rule="evenodd"/></g></g></g><path d="M171 13.4669C171 9.88909 173.905 6.98866 177.489 6.98866L302.511 6.98866C306.095 6.98866 309 9.88909 309 13.4669L309 138.288C309 141.866 306.095 144.766 302.511 144.766L177.489 144.766C173.905 144.766 171 141.866 171 138.288Z" stroke="#74AF54" stroke-width="6.00312" stroke-miterlimit="8" fill="#FFFFFF" fill-rule="evenodd"/><g clip-path="url(#clip8)"><g filter="url(#fx2)" transform="translate(6 0)"><g><path d="M9.82993 16.2923C9.82993 12.7144 12.735 9.81399 16.3187 9.81399L141.341 9.81399C144.925 9.81399 147.83 12.7144 147.83 16.2923L147.83 141.113C147.83 144.691 144.925 147.591 141.341 147.591L16.3187 147.591C12.735 147.591 9.82993 144.691 9.82993 141.113Z" stroke="#79A7DB" stroke-width="6" stroke-miterlimit="8" fill="#FFFFFF" fill-rule="evenodd"/></g></g></g><path d="M13 13.4669C13 9.88909 15.9051 6.98866 19.4888 6.98866L144.511 6.98866C148.095 6.98866 151 9.88909 151 13.4669L151 138.288C151 141.866 148.095 144.766 144.511 144.766L19.4888 144.766C15.9051 144.766 13 141.866 13 138.288Z" stroke="#79A7DB" stroke-width="6.00312" stroke-miterlimit="8" fill="#FFFFFF" fill-rule="evenodd"/><g clip-path="url(#clip9)" filter="url(#fx3)" transform="translate(-6 -6)"><g><path d="M4.39453-81.7383 47.2559-81.7383C56.9891-81.7383 64.7288-80.1953 70.475-77.1094 76.2212-74.0234 80.8044-69.4531 84.2248-63.3984 87.6453-57.3437 89.3555-50.0781 89.3555-41.6016 89.3555-35.7031 88.4857-30.4297 86.7462-25.7812 85.0067-21.1328 82.417-16.9434 78.977-13.2129 75.5371-9.48242 71.8433-6.67969 67.8955-4.80469 64.9243-3.39844 60.7123-2.24609 55.2594-1.34766 49.8065-0.449219 45.4382 0 42.1545 0L4.39453 0 4.39453-11.3086 7.22351-11.3086C9.62097-11.3086 11.1929-11.5039 11.9394-11.8945 12.6859-12.2852 13.295-12.9492 13.7668-13.8867 14.0811-14.6289 14.2383-16.25 14.2383-18.75L14.2383-63.3984C14.2383-65.8984 14.0712-67.5098 13.737-68.2324 13.4029-68.9551 12.8528-69.5019 12.0868-69.873 11.3208-70.2441 9.69971-70.4297 7.22351-70.4297L4.39453-70.4297ZM34.3359-68.6719 34.3359-17.764C34.3359-16.0416 34.4336-14.9847 34.6289-14.5935 34.9414-14.0057 35.4004-13.6043 36.0059-13.3891 36.6113-13.174 38.0664-13.0664 40.3711-13.0664 46.7773-13.0664 51.7871-14.0549 55.4004-16.0318 59.0137-18.0087 61.9336-21.1795 64.1601-25.5441 66.3867-29.9087 67.5-35.1053 67.5-41.1337 67.5-47.0834 66.4551-52.2603 64.3652-56.6643 62.2754-61.0683 59.6875-64.1705 56.6016-65.9711 53.5156-67.7716 49.1016-68.6719 43.3594-68.6719Z" fill="#153574" transform="matrix(1 0 0 0.998386 46.0013 280)"/><path d="M2.14795-36.1011 19.7715-36.1011 19.7715-31.1064 18.228-31.1064C17.3705-31.1064 16.8303-31.0633 16.6074-30.977 16.1957-30.8045 15.8956-30.5414 15.7069-30.1877 15.5182-29.8341 15.4238-29.269 15.4238-28.4927L15.4238-7.86719C15.4238-7.03906 15.4626-6.53011 15.5403-6.34033 15.6179-6.15055 15.7775-5.99959 16.019-5.88745 16.2606-5.77531 16.7264-5.71924 17.4165-5.71924 19.7284-5.71924 21.5873-6.02116 22.9934-6.625 24.3995-7.22884 25.6676-8.1993 26.7976-9.53638 27.9277-10.8735 28.8981-12.6893 29.709-14.9839L34.4707-13.3535 29.709 0 2.14795 0 2.14795-4.99463 3.87173-4.99463C4.57477-4.99463 5.10637-5.08952 5.46651-5.2793 5.82666-5.46907 6.08821-5.72355 6.25117-6.04272 6.41413-6.3619 6.4956-6.91829 6.4956-7.71191L6.4956-28.1562C6.4956-29.0189 6.41413-29.64 6.25117-30.0195 6.08821-30.3991 5.85665-30.6751 5.55648-30.8477 5.25632-31.0202 4.75471-31.1064 4.05167-31.1064L2.14795-31.1064Z" fill="#FFFFFF" transform="matrix(0.94995 -0.311393 0.312906 0.948417 238.565 260)"/><path d="M0.117187-81.7383 38.9648-81.7383 38.9648-70.4297 37.7344-70.4297C35.2734-70.4297 33.7012-70.332 33.0176-70.1367 32.334-69.9414 31.7578-69.5312 31.2891-68.9062 30.8203-68.2812 30.5859-67.6367 30.5859-66.9726 30.5859-66.1523 31.0352-64.4726 31.9336-61.9336L46.4117-21.2265 61.832-62.9819C62.5742-65.054 62.9452-66.481 62.9452-67.2629 62.9452-68.3578 62.5835-69.1594 61.8599-69.6675 61.1363-70.1756 59.5807-70.4297 57.193-70.4297L54.668-70.4297 54.668-81.7383 86.3086-81.7383 86.3086-70.4297C83.6914-70.4297 81.9336-70.1367 81.0351-69.5508 79.668-68.6523 78.3008-66.4648 76.9336-62.9883L52.4414 0 34.043 0 9.14062-63.3984C8.125-65.9375 7.34375-67.5586 6.79687-68.2617 6.25-68.9648 5.47852-69.5117 4.48242-69.9023 3.48633-70.293 2.03125-70.4687 0.117187-70.4297Z" fill="#153574" transform="matrix(1 0 0 0.998386 47.6927 128)"/><path d="M66.1523-81.7383 73.1836-54.3164 62.2266-51.2109C58.5992-57.7545 54.4846-62.5447 49.8825-65.5815 45.2805-68.6183 40.3857-70.1367 35.1984-70.1367 31.8439-70.1367 29.2014-69.4524 27.2708-68.0836 25.3403-66.7149 24.375-65.1901 24.375-63.5092 24.375-61.5933 25.2539-59.8141 27.0117-58.1717 28.7305-56.5292 31.8945-55.0629 36.5039-53.7726L52.207-49.1977C60.918-46.6959 67.1289-43.3731 70.8398-39.2294 74.5117-35.0467 76.3476-30.1797 76.3476-24.6286 76.3476-17.5528 73.5351-11.572 67.9101-6.6861 61.6211-1.2912 53.8086 1.40625 44.4727 1.40625 40.1367 1.40625 36.1523 0.849609 32.5195-0.263672 28.8867-1.37695 25.0977-3.24219 21.1523-5.85937L18.5742 0 9.84375 0 4.04297-31.6992 15-34.3359C17.5781-27.8906 21.5918-22.5098 27.041-18.1934 32.4902-13.877 38.4766-11.7187 45-11.7187 47.9297-11.7187 50.3613-12.0897 52.2949-12.8316 54.2285-13.5735 55.6836-14.6083 56.6602-15.9361 57.6367-17.2639 58.125-18.631 58.125-20.0372 58.125-22.3804 56.9922-24.3915 54.7266-26.0706 52.4219-27.7502 48.3984-29.4101 42.6562-31.0501L28.9947-35.0299C26.925-35.6158 24.1234-36.7195 20.5898-38.3409 17.0561-39.9623 14.3423-41.6521 12.4484-43.4102 10.5545-45.1683 8.98285-47.4246 7.73346-50.1791 6.48407-52.9337 5.85937-55.8347 5.85937-58.8821 5.85937-63.2187 7.06055-67.2136 9.46289-70.8668 11.8652-74.5201 15.4785-77.4797 20.3027-79.7456 25.127-82.0116 30.4687-83.1445 36.3281-83.1445 43.3984-83.1445 49.7852-81.3086 55.4883-77.6367L57.7734-81.7383Z" fill="#153574" transform="matrix(1 0 0 0.998386 209.372 128)"/></g></g><text fill="#153574" font-family="Bookman Old Style,Bookman Old Style_MSFontService,sans-serif" font-weight="600" font-size="120" transform="matrix(1 0 0 0.998386 37.1714 271)">D</text><text fill="#FFFFFF" font-family="Bookman Old Style,Bookman Old Style_MSFontService,sans-serif" font-weight="600" font-size="53" transform="matrix(0.94995 -0.311393 0.312906 0.948417 229.735 252)">L</text><text fill="#153574" font-family="Bookman Old Style,Bookman Old Style_MSFontService,sans-serif" font-weight="600" font-size="120" transform="matrix(1 0 0 0.998386 38.8629 119)">V</text><text fill="#153574" font-family="Bookman Old Style,Bookman Old Style_MSFontService,sans-serif" font-weight="600" font-size="120" transform="matrix(1 0 0 0.998386 200.542 119)">S</text><g clip-path="url(#clip10)" filter="url(#fx4)" transform="translate(131 119)"><g clip-path="url(#clip11)"><g clip-path="url(#clip12)"><g clip-path="url(#clip13)"><g clip-path="url(#clip14)"><path d="M53.6413 112.474 112.474 112.474 112.474 53.6413 53.6413 53.6413ZM57.102 57.102 109.013 57.102 109.013 109.013 57.102 109.013Z" stroke="#D86B68" stroke-width="3.00208" fill="#FFFFFF" transform="matrix(0.949303 -0.318438 0.318953 0.947771 -124.362 -58.7926)"/><path d="M145.351 50.1805 145.351 46.7198 129.777 46.7198 129.777 44.9894C129.772 40.2135 125.901 36.3433 121.125 36.3376L119.395 36.3376 119.395 20.7644 115.934 20.7644 115.934 36.3376 105.552 36.3376 105.552 20.7644 102.091 20.7644 102.091 36.3376 91.7093 36.3376 91.7093 20.7644 88.2485 20.7644 88.2485 36.3376 77.8663 36.3376 77.8663 20.7644 74.4056 20.7644 74.4056 36.3376 64.0234 36.3376 64.0234 20.7644 60.5627 20.7644 60.5627 36.3376 50.1805 36.3376 50.1805 20.7644 46.7198 20.7644 46.7198 36.3376 44.9894 36.3376C40.2135 36.3433 36.3433 40.2135 36.3376 44.9894L36.3376 46.7198 20.7644 46.7198 20.7644 50.1805 36.3376 50.1805 36.3376 60.5627 20.7644 60.5627 20.7644 64.0234 36.3376 64.0234 36.3376 74.4056 20.7644 74.4056 20.7644 77.8663 36.3376 77.8663 36.3376 88.2485 20.7644 88.2485 20.7644 91.7093 36.3376 91.7093 36.3376 102.091 20.7644 102.091 20.7644 105.552 36.3376 105.552 36.3376 115.934 20.7644 115.934 20.7644 119.395 36.3376 119.395 36.3376 121.125C36.3433 125.901 40.2135 129.772 44.9894 129.777L46.7198 129.777 46.7198 145.351 50.1805 145.351 50.1805 129.777 60.5627 129.777 60.5627 145.351 64.0234 145.351 64.0234 129.777 74.4056 129.777 74.4056 145.351 77.8663 145.351 77.8663 129.777 88.2485 129.777 88.2485 145.351 91.7093 145.351 91.7093 129.777 102.091 129.777 102.091 145.351 105.552 145.351 105.552 129.777 115.934 129.777 115.934 145.351 119.395 145.351 119.395 129.777 121.125 129.777C125.901 129.772 129.772 125.901 129.777 121.125L129.777 119.395 145.351 119.395 145.351 115.934 129.777 115.934 129.777 105.552 145.351 105.552 145.351 102.091 129.777 102.091 129.777 91.7093 145.351 91.7093 145.351 88.2485 129.777 88.2485 129.777 77.8663 145.351 77.8663 145.351 74.4056 129.777 74.4056 129.777 64.0234 145.351 64.0234 145.351 60.5627 129.777 60.5627 129.777 50.1805ZM126.317 121.125C126.317 123.992 123.992 126.317 121.125 126.317L44.9894 126.317C42.1224 126.317 39.7984 123.992 39.7984 121.125L39.7984 44.9894C39.7984 42.1224 42.1224 39.7984 44.9894 39.7984L121.125 39.7984C123.992 39.7984 126.317 42.1224 126.317 44.9894Z" stroke="#D86B68" stroke-width="3.00208" fill="#FFFFFF" transform="matrix(0.949303 -0.318438 0.318953 0.947771 -124.362 -58.7926)"/></g></g></g></g></g><g clip-path="url(#clip15)"><g clip-path="url(#clip16)"><g clip-path="url(#clip17)"><path d="M53.6413 112.474 112.474 112.474 112.474 53.6413 53.6413 53.6413ZM57.102 57.102 109.013 57.102 109.013 109.013 57.102 109.013Z" stroke="#D86B68" stroke-width="3.00208" fill="#FFFFFF" transform="matrix(0.949303 -0.318438 0.318953 0.947771 134.808 176.382)"/><path d="M145.351 50.1805 145.351 46.7198 129.777 46.7198 129.777 44.9894C129.772 40.2135 125.901 36.3433 121.125 36.3376L119.395 36.3376 119.395 20.7644 115.934 20.7644 115.934 36.3376 105.552 36.3376 105.552 20.7644 102.091 20.7644 102.091 36.3376 91.7093 36.3376 91.7093 20.7644 88.2485 20.7644 88.2485 36.3376 77.8663 36.3376 77.8663 20.7644 74.4056 20.7644 74.4056 36.3376 64.0234 36.3376 64.0234 20.7644 60.5627 20.7644 60.5627 36.3376 50.1805 36.3376 50.1805 20.7644 46.7198 20.7644 46.7198 36.3376 44.9894 36.3376C40.2135 36.3433 36.3433 40.2135 36.3376 44.9894L36.3376 46.7198 20.7644 46.7198 20.7644 50.1805 36.3376 50.1805 36.3376 60.5627 20.7644 60.5627 20.7644 64.0234 36.3376 64.0234 36.3376 74.4056 20.7644 74.4056 20.7644 77.8663 36.3376 77.8663 36.3376 88.2485 20.7644 88.2485 20.7644 91.7093 36.3376 91.7093 36.3376 102.091 20.7644 102.091 20.7644 105.552 36.3376 105.552 36.3376 115.934 20.7644 115.934 20.7644 119.395 36.3376 119.395 36.3376 121.125C36.3433 125.901 40.2135 129.772 44.9894 129.777L46.7198 129.777 46.7198 145.351 50.1805 145.351 50.1805 129.777 60.5627 129.777 60.5627 145.351 64.0234 145.351 64.0234 129.777 74.4056 129.777 74.4056 145.351 77.8663 145.351 77.8663 129.777 88.2485 129.777 88.2485 145.351 91.7093 145.351 91.7093 129.777 102.091 129.777 102.091 145.351 105.552 145.351 105.552 129.777 115.934 129.777 115.934 145.351 119.395 145.351 119.395 129.777 121.125 129.777C125.901 129.772 129.772 125.901 129.777 121.125L129.777 119.395 145.351 119.395 145.351 115.934 129.777 115.934 129.777 105.552 145.351 105.552 145.351 102.091 129.777 102.091 129.777 91.7093 145.351 91.7093 145.351 88.2485 129.777 88.2485 129.777 77.8663 145.351 77.8663 145.351 74.4056 129.777 74.4056 129.777 64.0234 145.351 64.0234 145.351 60.5627 129.777 60.5627 129.777 50.1805ZM126.317 121.125C126.317 123.992 123.992 126.317 121.125 126.317L44.9894 126.317C42.1224 126.317 39.7984 123.992 39.7984 121.125L39.7984 44.9894C39.7984 42.1224 42.1224 39.7984 44.9894 39.7984L121.125 39.7984C123.992 39.7984 126.317 42.1224 126.317 44.9894Z" stroke="#D86B68" stroke-width="3.00208" fill="#FFFFFF" transform="matrix(0.949303 -0.318438 0.318953 0.947771 134.808 176.382)"/></g></g></g></g></svg>