<svg width="321" height="304" xmlns="http://www.w3.org/2000/svg" xmlns:xlink="http://www.w3.org/1999/xlink" overflow="hidden"><defs><filter id="fx0" x="-10%" y="-10%" width="120%" height="120%" filterUnits="userSpaceOnUse" primitiveUnits="userSpaceOnUse"><feComponentTransfer color-interpolation-filters="sRGB"><feFuncR type="discrete" tableValues="0 0"/><feFuncG type="discrete" tableValues="0 0"/><feFuncB type="discrete" tableValues="0 0"/><feFuncA type="linear" slope="0.4" intercept="0"/></feComponentTransfer><feGaussianBlur stdDeviation="1.7787 1.77583"/></filter><filter id="fx1" x="-10%" y="-10%" width="120%" height="120%" filterUnits="userSpaceOnUse" primitiveUnits="userSpaceOnUse"><feComponentTransfer color-interpolation-filters="sRGB"><feFuncR type="discrete" tableValues="0 0"/><feFuncG type="discrete" tableValues="0 0"/><feFuncB type="discrete" tableValues="0 0"/><feFuncA type="linear" slope="0.4" intercept="0"/></feComponentTransfer><feGaussianBlur stdDeviation="1.7787 1.77583"/></filter><filter id="fx2" x="-10%" y="-10%" width="120%" height="120%" filterUnits="userSpaceOnUse" primitiveUnits="userSpaceOnUse"><feComponentTransfer color-interpolation-filters="sRGB"><feFuncR type="discrete" tableValues="0 0"/><feFuncG type="discrete" tableValues="0 0"/><feFuncB type="discrete" tableValues="0 0"/><feFuncA type="linear" slope="0.4" intercept="0"/></feComponentTransfer><feGaussianBlur stdDeviation="1.7787 1.77583"/></filter><filter id="fx3" x="-10%" y="-10%" width="120%" height="120%" filterUnits="userSpaceOnUse" primitiveUnits="userSpaceOnUse"><feComponentTransfer color-interpolation-filters="sRGB"><feFuncR type="discrete" tableValues="0 0"/><feFuncG type="discrete" tableValues="0 0"/><feFuncB type="discrete" tableValues="0 0"/><feFuncA type="linear" slope="0.4" intercept="0"/></feComponentTransfer><feGaussianBlur stdDeviation="1.7787 1.77583"/></filter><filter id="fx4" x="-10%" y="-10%" width="120%" height="120%" filterUnits="userSpaceOnUse" primitiveUnits="userSpaceOnUse"><feComponentTransfer color-interpolation-filters="sRGB"><feFuncR type="discrete" tableValues="0 0"/><feFuncG type="discrete" tableValues="0 0"/><feFuncB type="discrete" tableValues="0 0"/><feFuncA type="linear" slope="0.4" intercept="0"/></feComponentTransfer><feGaussianBlur stdDeviation="1.7787 1.77583"/></filter><clipPath id="clip5"><rect x="0" y="0" width="321" height="304"/></clipPath><clipPath id="clip6"><path d="M19.4888 157.745C15.9051 157.745 13 160.645 13 164.223L13 289.044C13 292.622 15.9051 295.522 19.4888 295.522L144.511 295.522C148.095 295.522 151 292.622 151 289.044L151 164.223C151 160.645 148.095 157.745 144.511 157.745ZM4.78327e-06 4.52995e-06 321 4.52995e-06 321 304 4.78327e-06 304Z" fill-rule="evenodd" clip-rule="evenodd"/></clipPath><clipPath id="clip7"><path d="M177.489 4.99191C173.905 4.99191 171 7.89233 171 11.4702L171 136.291C171 139.869 173.905 142.769 177.489 142.769L302.511 142.769C306.095 142.769 309 139.869 309 136.291L309 11.4702C309 7.89233 306.095 4.99191 302.511 4.99191ZM4.78327e-06 4.52995e-06 321 4.52995e-06 321 304 4.78327e-06 304Z" fill-rule="evenodd" clip-rule="evenodd"/></clipPath><clipPath id="clip8"><path d="M19.4888 4.99191C15.9051 4.99191 13 7.89233 13 11.4702L13 136.291C13 139.869 15.9051 142.769 19.4888 142.769L144.511 142.769C148.095 142.769 151 139.869 151 136.291L151 11.4702C151 7.89233 148.095 4.99191 144.511 4.99191ZM4.78327e-06 4.52995e-06 321 4.52995e-06 321 304 4.78327e-06 304Z" fill-rule="evenodd" clip-rule="evenodd"/></clipPath><clipPath id="clip9"><rect x="40" y="34" width="254" height="253"/></clipPath><clipPath id="clip10"><path d="M177.489 157.745C173.905 157.745 171 160.645 171 164.223L171 289.044C171 292.622 173.905 295.522 177.489 295.522L302.511 295.522C306.095 295.522 309 292.622 309 289.044L309 164.223C309 160.645 306.095 157.745 302.511 157.745ZM4.78327e-06 4.52995e-06 321 4.52995e-06 321 304 4.78327e-06 304Z" fill-rule="evenodd" clip-rule="evenodd"/></clipPath></defs><g clip-path="url(#clip5)"><rect x="0" y="0" width="321" height="303.509" fill="#FFFFFF" fill-opacity="0"/><g clip-path="url(#clip6)"><g filter="url(#fx0)" transform="translate(6 151)"><g><path d="M9.82993 16.0486C9.82993 12.4708 12.735 9.57037 16.3187 9.57037L141.341 9.57037C144.925 9.57037 147.83 12.4708 147.83 16.0486L147.83 140.869C147.83 144.447 144.925 147.348 141.341 147.348L16.3187 147.348C12.735 147.348 9.82993 144.447 9.82993 140.869Z" stroke="#F0B46E" stroke-width="6" stroke-miterlimit="8" fill="#FFFFFF" fill-rule="evenodd"/></g></g></g><path d="M13 164.223C13 160.645 15.9051 157.745 19.4888 157.745L144.511 157.745C148.095 157.745 151 160.645 151 164.223L151 289.044C151 292.622 148.095 295.522 144.511 295.522L19.4888 295.522C15.9051 295.522 13 292.622 13 289.044Z" stroke="#F0B46E" stroke-width="6.00312" stroke-miterlimit="8" fill="#FFFFFF" fill-rule="evenodd"/><g clip-path="url(#clip7)"><g filter="url(#fx1)" transform="translate(164 -2)"><g><path d="M9.82986 16.2955C9.82986 12.7177 12.735 9.81723 16.3186 9.81723L141.341 9.81723C144.925 9.81723 147.83 12.7177 147.83 16.2955L147.83 141.116C147.83 144.694 144.925 147.595 141.341 147.595L16.3186 147.595C12.735 147.595 9.82986 144.694 9.82986 141.116Z" stroke="#74AF54" stroke-width="6" stroke-miterlimit="8" fill="#FFFFFF" fill-rule="evenodd"/></g></g></g><path d="M171 11.4702C171 7.89233 173.905 4.9919 177.489 4.9919L302.511 4.9919C306.095 4.9919 309 7.89233 309 11.4702L309 136.291C309 139.869 306.095 142.769 302.511 142.769L177.489 142.769C173.905 142.769 171 139.869 171 136.291Z" stroke="#74AF54" stroke-width="6.00312" stroke-miterlimit="8" fill="#FFFFFF" fill-rule="evenodd"/><g clip-path="url(#clip8)"><g filter="url(#fx2)" transform="translate(6 -2)"><g><path d="M9.82993 16.2955C9.82993 12.7177 12.735 9.81723 16.3187 9.81723L141.341 9.81723C144.925 9.81723 147.83 12.7177 147.83 16.2955L147.83 141.116C147.83 144.694 144.925 147.595 141.341 147.595L16.3187 147.595C12.735 147.595 9.82993 144.694 9.82993 141.116Z" stroke="#79A7DB" stroke-width="6" stroke-miterlimit="8" fill="#FFFFFF" fill-rule="evenodd"/></g></g></g><path d="M13 11.4702C13 7.89233 15.9051 4.9919 19.4888 4.9919L144.511 4.9919C148.095 4.9919 151 7.89233 151 11.4702L151 136.291C151 139.869 148.095 142.769 144.511 142.769L19.4888 142.769C15.9051 142.769 13 139.869 13 136.291Z" stroke="#79A7DB" stroke-width="6.00312" stroke-miterlimit="8" fill="#FFFFFF" fill-rule="evenodd"/><g clip-path="url(#clip9)" filter="url(#fx3)" transform="translate(-6 -6)"><g><path d="M4.39453-81.7383 47.2559-81.7383C56.9891-81.7383 64.7288-80.1953 70.475-77.1094 76.2212-74.0234 80.8044-69.4531 84.2248-63.3984 87.6453-57.3437 89.3555-50.0781 89.3555-41.6016 89.3555-35.7031 88.4857-30.4297 86.7462-25.7812 85.0067-21.1328 82.417-16.9434 78.977-13.2129 75.5371-9.48242 71.8433-6.67969 67.8955-4.80469 64.9243-3.39844 60.7123-2.24609 55.2594-1.34766 49.8065-0.449219 45.4382 0 42.1545 0L4.39453 0 4.39453-11.3086 7.22351-11.3086C9.62097-11.3086 11.1929-11.5039 11.9394-11.8945 12.6859-12.2852 13.295-12.9492 13.7668-13.8867 14.0811-14.6289 14.2383-16.25 14.2383-18.75L14.2383-63.3984C14.2383-65.8984 14.0712-67.5098 13.737-68.2324 13.4029-68.9551 12.8528-69.5019 12.0868-69.873 11.3208-70.2441 9.69971-70.4297 7.22351-70.4297L4.39453-70.4297ZM34.3359-68.6719 34.3359-17.764C34.3359-16.0416 34.4336-14.9847 34.6289-14.5935 34.9414-14.0057 35.4004-13.6043 36.0059-13.3891 36.6113-13.174 38.0664-13.0664 40.3711-13.0664 46.7773-13.0664 51.7871-14.0549 55.4004-16.0318 59.0137-18.0087 61.9336-21.1795 64.1601-25.5441 66.3867-29.9087 67.5-35.1053 67.5-41.1337 67.5-47.0834 66.4551-52.2603 64.3652-56.6643 62.2754-61.0683 59.6875-64.1705 56.6016-65.9711 53.5156-67.7716 49.1016-68.6719 43.3594-68.6719Z" fill="#153574" transform="matrix(1 0 0 0.998386 46.0013 278)"/><path d="M0.117187-81.7383 38.9648-81.7383 38.9648-70.4297 37.7344-70.4297C35.2734-70.4297 33.7012-70.332 33.0176-70.1367 32.334-69.9414 31.7578-69.5312 31.2891-68.9062 30.8203-68.2812 30.5859-67.6367 30.5859-66.9726 30.5859-66.1523 31.0352-64.4726 31.9336-61.9336L46.4117-21.2265 61.832-62.9819C62.5742-65.054 62.9452-66.481 62.9452-67.2629 62.9452-68.3578 62.5835-69.1594 61.8599-69.6675 61.1363-70.1756 59.5807-70.4297 57.193-70.4297L54.668-70.4297 54.668-81.7383 86.3086-81.7383 86.3086-70.4297C83.6914-70.4297 81.9336-70.1367 81.0351-69.5508 79.668-68.6523 78.3008-66.4648 76.9336-62.9883L52.4414 0 34.043 0 9.14062-63.3984C8.125-65.9375 7.34375-67.5586 6.79687-68.2617 6.25-68.9648 5.47852-69.5117 4.48242-69.9023 3.48633-70.293 2.03125-70.4687 0.117187-70.4297Z" fill="#153574" transform="matrix(1 0 0 0.998386 47.6927 126)"/><path d="M66.1523-81.7383 73.1836-54.3164 62.2266-51.2109C58.5992-57.7545 54.4846-62.5447 49.8825-65.5815 45.2805-68.6183 40.3857-70.1367 35.1984-70.1367 31.8439-70.1367 29.2014-69.4524 27.2708-68.0836 25.3403-66.7149 24.375-65.1901 24.375-63.5092 24.375-61.5933 25.2539-59.8141 27.0117-58.1717 28.7305-56.5292 31.8945-55.0629 36.5039-53.7726L52.207-49.1977C60.918-46.6959 67.1289-43.3731 70.8398-39.2294 74.5117-35.0467 76.3476-30.1797 76.3476-24.6286 76.3476-17.5528 73.5351-11.572 67.9101-6.6861 61.6211-1.2912 53.8086 1.40625 44.4727 1.40625 40.1367 1.40625 36.1523 0.849609 32.5195-0.263672 28.8867-1.37695 25.0977-3.24219 21.1523-5.85937L18.5742 0 9.84375 0 4.04297-31.6992 15-34.3359C17.5781-27.8906 21.5918-22.5098 27.041-18.1934 32.4902-13.877 38.4766-11.7187 45-11.7187 47.9297-11.7187 50.3613-12.0897 52.2949-12.8316 54.2285-13.5735 55.6836-14.6083 56.6602-15.9361 57.6367-17.2639 58.125-18.631 58.125-20.0372 58.125-22.3804 56.9922-24.3915 54.7266-26.0706 52.4219-27.7502 48.3984-29.4101 42.6562-31.0501L28.9947-35.0299C26.925-35.6158 24.1234-36.7195 20.5898-38.3409 17.0561-39.9623 14.3423-41.6521 12.4484-43.4102 10.5545-45.1683 8.98285-47.4246 7.73346-50.1791 6.48407-52.9337 5.85937-55.8347 5.85937-58.8821 5.85937-63.2187 7.06055-67.2136 9.46289-70.8668 11.8652-74.5201 15.4785-77.4797 20.3027-79.7456 25.127-82.0116 30.4687-83.1445 36.3281-83.1445 43.3984-83.1445 49.7852-81.3086 55.4883-77.6367L57.7734-81.7383Z" fill="#153574" transform="matrix(1 0 0 0.998386 209.372 126)"/></g></g><text fill="#153574" font-family="Bookman Old Style,Bookman Old Style_MSFontService,sans-serif" font-weight="600" font-size="120" transform="matrix(1 0 0 0.998386 37.1714 269)">D</text><text fill="#153574" font-family="Bookman Old Style,Bookman Old Style_MSFontService,sans-serif" font-weight="600" font-size="120" transform="matrix(1 0 0 0.998386 38.8629 117)">V</text><text fill="#153574" font-family="Bookman Old Style,Bookman Old Style_MSFontService,sans-serif" font-weight="600" font-size="120" transform="matrix(1 0 0 0.998386 200.542 117)">S</text><g clip-path="url(#clip10)"><g filter="url(#fx4)" transform="translate(164 151)"><g><path d="M9.82986 16.0487C9.82986 12.4708 12.735 9.57037 16.3186 9.57037L141.341 9.57037C144.925 9.57037 147.83 12.4708 147.83 16.0487L147.83 140.869C147.83 144.447 144.925 147.348 141.341 147.348L16.3186 147.348C12.735 147.348 9.82986 144.447 9.82986 140.869Z" stroke="#D86B68" stroke-width="6" stroke-miterlimit="8" fill="#FFFFFF" fill-rule="evenodd"/></g></g></g><path d="M171 164.223C171 160.645 173.905 157.745 177.489 157.745L302.511 157.745C306.095 157.745 309 160.645 309 164.223L309 289.044C309 292.622 306.095 295.522 302.511 295.522L177.489 295.522C173.905 295.522 171 292.622 171 289.044Z" stroke="#D86B68" stroke-width="6.00312" stroke-miterlimit="8" fill="#FFFFFF" fill-rule="evenodd"/><text fill="#153574" font-family="Bookman Old Style,Bookman Old Style_MSFontService,sans-serif" font-weight="600" font-size="120" transform="matrix(1 0 0 0.998386 203.635 269)">L</text></g></svg>