<svg width="1172" height="304" xmlns="http://www.w3.org/2000/svg" xmlns:xlink="http://www.w3.org/1999/xlink" overflow="hidden"><defs><filter id="fx0" x="-10%" y="-10%" width="120%" height="120%" filterUnits="userSpaceOnUse" primitiveUnits="userSpaceOnUse"><feComponentTransfer color-interpolation-filters="sRGB"><feFuncR type="discrete" tableValues="0 0"/><feFuncG type="discrete" tableValues="0 0"/><feFuncB type="discrete" tableValues="0 0"/><feFuncA type="linear" slope="0.4" intercept="0"/></feComponentTransfer><feGaussianBlur stdDeviation="1.77828 1.77583"/></filter><filter id="fx1" x="-10%" y="-10%" width="120%" height="120%" filterUnits="userSpaceOnUse" primitiveUnits="userSpaceOnUse"><feComponentTransfer color-interpolation-filters="sRGB"><feFuncR type="discrete" tableValues="0 0"/><feFuncG type="discrete" tableValues="0 0"/><feFuncB type="discrete" tableValues="0 0"/><feFuncA type="linear" slope="0.4" intercept="0"/></feComponentTransfer><feGaussianBlur stdDeviation="1.77828 1.77583"/></filter><filter id="fx2" x="-10%" y="-10%" width="120%" height="120%" filterUnits="userSpaceOnUse" primitiveUnits="userSpaceOnUse"><feComponentTransfer color-interpolation-filters="sRGB"><feFuncR type="discrete" tableValues="0 0"/><feFuncG type="discrete" tableValues="0 0"/><feFuncB type="discrete" tableValues="0 0"/><feFuncA type="linear" slope="0.4" intercept="0"/></feComponentTransfer><feGaussianBlur stdDeviation="1.77828 1.77583"/></filter><filter id="fx3" x="-10%" y="-10%" width="120%" height="120%" filterUnits="userSpaceOnUse" primitiveUnits="userSpaceOnUse"><feComponentTransfer color-interpolation-filters="sRGB"><feFuncR type="discrete" tableValues="0 0"/><feFuncG type="discrete" tableValues="0 0"/><feFuncB type="discrete" tableValues="0 0"/><feFuncA type="linear" slope="0.4" intercept="0"/></feComponentTransfer><feGaussianBlur stdDeviation="1.77828 1.77583"/></filter><clipPath id="clip4"><rect x="0" y="0" width="1172" height="304"/></clipPath><clipPath id="clip5"><rect x="151" y="71" width="161" height="185"/></clipPath><clipPath id="clip6"><rect x="151" y="75" width="186" height="179"/></clipPath><clipPath id="clip7"><rect x="153" y="75" width="161" height="179"/></clipPath><clipPath id="clip8"><rect x="54" y="75" width="188" height="181"/></clipPath></defs><g clip-path="url(#clip4)"><rect x="0" y="0" width="1172" height="303.581" fill="#FFFFFF" fill-opacity="0"/><path d="M3.99998 26.9403C3.99998 19.7829 9.8102 13.9807 16.9775 13.9807L267.022 13.9807C274.19 13.9807 280 19.7829 280 26.9403L280 276.64C280 283.798 274.19 289.6 267.022 289.6L16.9775 289.6C9.8102 289.6 3.99998 283.798 3.99998 276.64Z" fill="#79A7DB" fill-rule="evenodd"/><path d="M298 26.9403C298 19.7829 303.81 13.9807 310.978 13.9807L561.023 13.9807C568.19 13.9807 574 19.7829 574 26.9403L574 276.64C574 283.798 568.19 289.6 561.023 289.6L310.978 289.6C303.81 289.6 298 283.798 298 276.64Z" fill="#74AF54" fill-rule="evenodd"/><path d="M593 26.9403C593 19.7829 598.81 13.9807 605.978 13.9807L856.023 13.9807C863.19 13.9807 869 19.7829 869 26.9403L869 276.64C869 283.798 863.19 289.6 856.023 289.6L605.978 289.6C598.81 289.6 593 283.798 593 276.64Z" fill="#F0B46E" fill-rule="evenodd"/><path d="M887 26.9403C887 19.7829 892.81 13.9807 899.977 13.9807L1150.02 13.9807C1157.19 13.9807 1163 19.7829 1163 26.9403L1163 276.64C1163 283.798 1157.19 289.6 1150.02 289.6L899.977 289.6C892.81 289.6 887 283.798 887 276.64Z" fill="#D86B68" fill-rule="evenodd"/><g clip-path="url(#clip5)" filter="url(#fx0)" transform="translate(205 -6)"><g><path d="M132.305-163.477 146.367-108.633 124.453-102.422C117.198-115.509 108.969-125.089 99.765-131.163 90.5609-137.237 80.7715-140.273 70.3967-140.273 63.6877-140.273 58.4027-138.905 54.5416-136.167 50.6805-133.43 48.75-130.38 48.75-127.018 48.75-123.187 50.5078-119.628 54.0234-116.343 57.4609-113.058 63.7891-110.126 73.0078-107.545L104.414-98.3954C121.836-93.3917 134.258-86.7462 141.68-78.4589 149.023-70.0934 152.695-60.3595 152.695-49.2572 152.695-35.1056 147.07-23.1439 135.82-13.3722 123.242-2.5824 107.617 2.8125 88.9453 2.8125 80.2734 2.8125 72.3047 1.69922 65.0391-0.527344 57.7734-2.75391 50.1953-6.48438 42.3047-11.7188L37.1484 0 19.6875 0 8.08594-63.3984 30-68.6719C35.1562-55.7812 43.1836-45.0195 54.082-36.3867 64.9805-27.7539 76.9531-23.4375 90-23.4375 95.8594-23.4375 100.723-24.1794 104.59-25.6631 108.457-27.1469 111.367-29.2166 113.32-31.8723 115.273-34.5279 116.25-37.262 116.25-40.0745 116.25-44.7607 113.984-48.783 109.453-52.1411 104.844-55.5005 96.7969-58.8202 85.3125-62.1002L57.9895-70.0598C53.8501-71.2317 48.2468-73.439 41.1795-76.6818 34.1122-79.9246 28.6847-83.3041 24.8969-86.8204 21.109-90.3366 17.9657-94.8492 15.4669-100.358 12.9681-105.867 11.7188-111.669 11.7188-117.764 11.7188-126.437 14.1211-134.427 18.9258-141.734 23.7305-149.04 30.957-154.959 40.6055-159.491 50.2539-164.023 60.9375-166.289 72.6562-166.289 86.7969-166.289 99.5703-162.617 110.977-155.273L115.547-163.477Z" fill="#FFFFFF" transform="matrix(1 0 0 0.998621 150.799 246)"/></g></g><text fill="#FFFFFF" font-family="Bookman Old Style,Bookman Old Style_MSFontService,sans-serif" font-weight="600" font-size="240" transform="matrix(1 0 0 0.998621 352.969 237)">S</text><g clip-path="url(#clip6)" filter="url(#fx1)" transform="translate(489 -6)"><g><path d="M8.78906-163.477 94.5117-163.477C113.978-163.477 129.458-160.391 140.95-154.219 152.442-148.047 161.609-138.906 168.45-126.797 175.291-114.687 178.711-100.156 178.711-83.2031 178.711-71.4062 176.971-60.8594 173.492-51.5625 170.013-42.2656 164.834-33.8867 157.954-26.4258 151.074-18.9648 143.687-13.3594 135.791-9.60938 129.849-6.79688 121.425-4.49219 110.519-2.69531 99.613-0.898438 90.8765 0 84.3091 0L8.78906 0 8.78906-22.6172 14.447-22.6172C19.2419-22.6172 22.3859-23.0078 23.8788-23.7891 25.3717-24.5703 26.59-25.8984 27.5336-27.7734 28.1622-29.2578 28.4766-32.5 28.4766-37.5L28.4766-126.797C28.4766-131.797 28.1424-135.02 27.4741-136.465 26.8057-137.91 25.7056-139.004 24.1736-139.746 22.6416-140.488 19.3994-140.859 14.447-140.859L8.78906-140.859ZM68.6719-137.344 68.6719-35.528C68.6719-32.0831 68.8672-29.9695 69.2578-29.187 69.8828-28.0115 70.8008-27.2086 72.0117-26.7783 73.2227-26.348 76.1328-26.1328 80.7422-26.1328 93.5547-26.1328 103.574-28.1097 110.801-32.0636 118.027-36.0175 123.867-42.359 128.32-51.0883 132.773-59.8175 135-70.2106 135-82.2675 135-94.1669 132.91-104.521 128.73-113.329 124.551-122.137 119.375-128.341 113.203-131.942 107.031-135.543 98.2031-137.344 86.7188-137.344Z" fill="#FFFFFF" transform="matrix(1 0 0 0.998621 151.213 246)"/></g></g><text fill="#FFFFFF" font-family="Bookman Old Style,Bookman Old Style_MSFontService,sans-serif" font-weight="600" font-size="240" transform="matrix(1 0 0 0.998621 637.384 237)">D</text><g clip-path="url(#clip7)" filter="url(#fx2)" transform="translate(805 -6)"><g><path d="M9.72656-163.477 89.5312-163.477 89.5312-140.859 82.5421-140.859C78.6591-140.859 76.2128-140.664 75.2032-140.273 73.3392-139.492 71.98-138.301 71.1255-136.699 70.271-135.098 69.8438-132.539 69.8438-129.023L69.8438-35.625C69.8438-31.875 70.0195-29.5703 70.3711-28.7109 70.7227-27.8516 71.4453-27.168 72.5391-26.6602 73.6328-26.1523 75.7422-25.8984 78.8672-25.8984 89.3359-25.8984 97.7539-27.2656 104.121-30 110.488-32.7344 116.23-37.1289 121.348-43.1836 126.465-49.2383 130.859-57.4609 134.531-67.8516L156.094-60.4688 134.531 0 9.72656 0 9.72656-22.6172 17.5323-22.6172C20.7159-22.6172 23.1232-23.0469 24.754-23.9062 26.3849-24.7656 27.5693-25.918 28.3072-27.3633 29.0451-28.8086 29.4141-31.3281 29.4141-34.9219L29.4141-127.5C29.4141-131.406 29.0451-134.219 28.3072-135.938 27.5693-137.656 26.5207-138.906 25.1614-139.688 23.8022-140.469 21.5308-140.859 18.3472-140.859L9.72656-140.859Z" fill="#FFFFFF" transform="matrix(1 0 0 0.998621 150.719 246)"/></g></g><text fill="#FFFFFF" font-family="Bookman Old Style,Bookman Old Style_MSFontService,sans-serif" font-weight="600" font-size="240" transform="matrix(1 0 0 0.998621 952.89 237)">L</text><g clip-path="url(#clip8)" filter="url(#fx3)" transform="translate(-6 -6)"><g><path d="M0.234375-163.477 77.9297-163.477 77.9297-140.859 75.4688-140.859C70.5469-140.859 67.4023-140.664 66.0352-140.273 64.668-139.883 63.5156-139.062 62.5781-137.812 61.6406-136.562 61.1719-135.273 61.1719-133.945 61.1719-132.305 62.0703-128.945 63.8672-123.867L92.8235-42.453 123.664-125.964C125.148-130.108 125.89-132.962 125.891-134.526 125.89-136.716 125.167-138.319 123.72-139.335 122.273-140.351 119.161-140.859 114.386-140.859L109.336-140.859 109.336-163.477 172.617-163.477 172.617-140.859C167.383-140.859 163.867-140.273 162.07-139.102 159.336-137.305 156.602-132.93 153.867-125.977L104.883 0 68.0859 0 18.2812-126.797C16.25-131.875 14.6875-135.117 13.5938-136.523 12.5-137.93 10.957-139.023 8.96484-139.805 6.97266-140.586 4.0625-140.938 0.234375-140.859Z" fill="#FFFFFF" transform="matrix(1 0 0 0.998621 61.8133 247)"/></g></g><text fill="#FFFFFF" font-family="Bookman Old Style,Bookman Old Style_MSFontService,sans-serif" font-weight="600" font-size="240" transform="matrix(1 0 0 0.998621 55.8133 237)">V</text></g></svg>